<svg width="292" height="190" viewBox="0 0 292 190" fill="none" xmlns="http://www.w3.org/2000/svg">
<path d="M291.524 98.7458C291.524 148.939 249.831 201.253 176.821 180.229C153.484 173.508 128.599 174.234 104.564 175.205C84.0458 176.027 61.6664 178.819 41.5454 173.371C14.9502 166.171 6.65544 136.373 9.73517 111.872C12.8149 87.3713 28.0356 62.8703 45.2274 45.6238C73.383 17.3723 113.036 7.85938 151.882 7.85938C228.999 7.84569 291.524 48.5393 291.524 98.7458Z" fill="#C4E3FF"/>
<path d="M275.793 33.1539C278.276 29.4309 275.731 23.3728 270.109 19.6227C264.487 15.8726 257.916 15.8505 255.433 19.5735C252.95 23.2964 255.494 29.3545 261.116 33.1047C266.738 36.8548 273.309 36.8768 275.793 33.1539Z" fill="#71B6F2"/>
<path d="M18.0157 175.824C19.8153 173.126 17.9706 168.735 13.8954 166.017C9.82032 163.299 5.05795 163.282 3.25839 165.98C1.45883 168.678 3.30354 173.069 7.37866 175.787C11.4538 178.505 16.2161 178.522 18.0157 175.824Z" fill="#71B6F2"/>
<path d="M286.008 160.606C288.341 158.213 288.946 155.02 287.36 153.474C285.774 151.928 282.598 152.614 280.265 155.006C277.932 157.398 277.327 160.591 278.913 162.138C280.499 163.684 283.675 162.998 286.008 160.606Z" fill="#71B6F2"/>
<path d="M75.4246 127.887C80.7522 126.447 84.449 122.978 83.6818 120.139C82.9146 117.3 77.9738 116.166 72.6463 117.606C67.3188 119.046 63.622 122.514 64.3892 125.353C65.1564 128.192 70.0971 129.326 75.4246 127.887Z" fill="#71B6F2"/>
<path d="M277.412 102.689L276.727 103.497C275.331 105.153 272.854 105.358 271.197 103.962L268.2 101.43L273.949 94.6133L276.946 97.1455C278.602 98.5553 278.808 101.033 277.412 102.689Z" fill="#F65852"/>
<path d="M254.443 78.2009L275.358 95.8307L269.609 102.647L248.694 85.0174L245.204 77.3934C244.862 76.6542 245.546 75.8467 246.326 76.052L254.443 78.2009Z" fill="#FACC73"/>
<path fill-rule="evenodd" clip-rule="evenodd" d="M249.229 83.2729C249.375 83.0995 249.634 83.0775 249.808 83.2236L269.956 100.21C270.129 100.356 270.151 100.615 270.005 100.789C269.859 100.962 269.6 100.984 269.427 100.838L249.278 83.8515C249.105 83.7054 249.083 83.4463 249.229 83.2729Z" fill="#F8A54F"/>
<path fill-rule="evenodd" clip-rule="evenodd" d="M251.215 81.2905C251.361 81.1171 251.62 81.095 251.793 81.2412L271.942 98.2277C272.115 98.3739 272.137 98.6329 271.991 98.8063C271.845 98.9797 271.586 99.0017 271.412 98.8556L251.264 81.8691C251.091 81.7229 251.069 81.4639 251.215 81.2905Z" fill="#F8A54F"/>
<path fill-rule="evenodd" clip-rule="evenodd" d="M253.185 79.3199C253.331 79.1465 253.59 79.1243 253.764 79.2704L273.926 96.2569C274.099 96.403 274.121 96.6621 273.975 96.8355C273.829 97.0089 273.57 97.0311 273.396 96.885L253.234 79.8985C253.061 79.7524 253.039 79.4933 253.185 79.3199Z" fill="#F8A54F"/>
<path d="M254.443 78.2009L254.471 78.2283C253.759 79.4602 252.897 80.6921 251.884 81.8829C250.885 83.0738 249.817 84.1277 248.722 85.0448L248.695 85.0174L246.108 79.3507L245.218 77.3934C244.876 76.6542 245.56 75.8467 246.34 76.052L248.421 76.5995L254.443 78.2009Z" fill="#F3EDF3"/>
<path d="M248.436 76.6132C248.149 77.1333 247.807 77.6261 247.41 78.0914C247.013 78.5568 246.575 78.9811 246.123 79.3507L245.234 77.3934C244.891 76.6542 245.576 75.8467 246.356 76.052L248.436 76.6132Z" fill="#0055A8"/>
<path d="M272.353 93.2923L266.61 100.105L269.624 102.646L275.367 95.833L272.353 93.2923Z" fill="#EDE3EB"/>
<path d="M49.7163 57.752L43.8442 62.3784C51.742 68.0862 49.1824 75.0806 48.895 77.2159C50.7565 75.2859 52.1801 74.2456 52.1801 74.2456L55.5199 76.1072C56.478 66.252 49.7163 57.752 49.7163 57.752Z" fill="#F52A21"/>
<path d="M78.5021 54.8916L66.3337 60.4351L46.7055 69.3458L29.5548 31.6225L29.4316 31.3624L61.2419 16.9082L78.5021 54.8916Z" fill="#FACC73"/>
<path d="M61.2412 16.9085L37.4793 27.7218L29.4309 31.3765L19.9316 29.3781L23.641 27.6945L51.7282 14.9238C52.8506 15.5808 54.0414 16.0736 55.2733 16.4158C56.5052 16.7443 57.7919 16.9222 59.0785 16.9222L61.2412 16.9085Z" fill="#FFF3F3"/>
<path d="M46.7733 69.3177L37.2055 67.3604L19.9316 29.377L29.513 31.3343L46.7733 69.3177Z" fill="#C77827"/>
<path fill-rule="evenodd" clip-rule="evenodd" d="M57.7746 27.6873L39.8437 35.8452L39.2769 34.5993L57.2078 26.4414L57.7746 27.6873Z" fill="#F8A54F"/>
<path fill-rule="evenodd" clip-rule="evenodd" d="M59.8947 32.3533L41.9638 40.5112L41.397 39.2653L59.3279 31.1074L59.8947 32.3533Z" fill="#F8A54F"/>
<path d="M66.3326 60.4343L46.7044 69.3587L29.5537 31.6217C29.6906 31.5396 29.8275 31.4848 30.0054 31.4438C32.4145 30.8689 34.3444 35.1121 34.7961 36.7956C35.5352 39.5469 35.6995 42.6129 37.52 44.7893C39.3952 47.0478 42.6529 47.828 44.4323 50.1549C45.2261 51.1814 45.6642 52.4544 46.4991 53.4399C49.4009 56.9166 55.2729 55.5478 58.9686 58.1348C59.4614 58.477 59.9131 58.8876 60.4195 59.2161C62.1442 60.3111 64.2931 60.2701 66.3326 60.4343Z" fill="#F8A54F"/>
<path d="M37.4793 27.7207L29.4309 31.3754L19.9316 29.377L23.641 27.6934C26.1732 27.885 28.9655 28.7199 30.9503 28.2956C31.7989 28.1177 32.6202 27.7481 33.4825 27.8029C34.4132 27.8576 35.344 28.4188 36.2474 28.1314C36.6443 27.9945 37.096 27.7207 37.4793 27.7207Z" fill="#C9CEEF"/>
<path d="M30.7031 28.2271L27.2674 29.7875L25.5839 30.554L23.5854 30.1296L24.3657 29.7738L28.7047 27.8027L30.7031 28.2271Z" fill="#F52A21"/>
<path fill-rule="evenodd" clip-rule="evenodd" d="M222.449 83.7272C222.578 83.6609 222.735 83.6834 222.841 83.7833L226.495 87.2457C226.495 87.2458 226.495 87.2458 226.495 87.2459C227.154 87.8675 226.961 88.9529 226.142 89.3255L224.717 89.9691L224.714 89.9706C223.95 90.3062 223.05 89.8247 222.937 88.9777C222.937 88.9775 222.937 88.9773 222.937 88.9771L222.266 84.0781C222.247 83.9342 222.32 83.7935 222.449 83.7272ZM223.076 84.9494L223.615 88.8866C223.666 89.2706 224.08 89.5005 224.437 89.3446L225.858 88.7025C225.858 88.7024 225.858 88.7024 225.859 88.7024C226.243 88.5274 226.324 88.0255 226.025 87.7436L226.025 87.743L223.076 84.9494Z" fill="#EDE3EB"/>
<path d="M110.422 38.5345C111.208 38.5345 111.845 37.8972 111.845 37.111C111.845 36.3248 111.208 35.6875 110.422 35.6875C109.635 35.6875 108.998 36.3248 108.998 37.111C108.998 37.8972 109.635 38.5345 110.422 38.5345Z" fill="white"/>
<path d="M25.2136 106.054C25.9998 106.054 26.6371 105.417 26.6371 104.631C26.6371 103.844 25.9998 103.207 25.2136 103.207C24.4274 103.207 23.79 103.844 23.79 104.631C23.79 105.417 24.4274 106.054 25.2136 106.054Z" fill="white"/>
<path d="M35.3434 184.201C36.1296 184.201 36.767 183.563 36.767 182.777C36.767 181.991 36.1296 181.354 35.3434 181.354C34.5573 181.354 33.9199 181.991 33.9199 182.777C33.9199 183.563 34.5573 184.201 35.3434 184.201Z" fill="white"/>
<path d="M267.884 181.667C268.67 181.667 269.307 181.03 269.307 180.244C269.307 179.458 268.67 178.82 267.884 178.82C267.097 178.82 266.46 179.458 266.46 180.244C266.46 181.03 267.097 181.667 267.884 181.667Z" fill="white"/>
<path d="M236.786 109.986C237.572 109.986 238.209 109.348 238.209 108.562C238.209 107.776 237.572 107.139 236.786 107.139C236 107.139 235.362 107.776 235.362 108.562C235.362 109.348 236 109.986 236.786 109.986Z" fill="white"/>
<path d="M258.824 59.1068C259.61 59.1068 260.247 58.4695 260.247 57.6833C260.247 56.8971 259.61 56.2598 258.824 56.2598C258.038 56.2598 257.4 56.8971 257.4 57.6833C257.4 58.4695 258.038 59.1068 258.824 59.1068Z" fill="white"/>
<path fill-rule="evenodd" clip-rule="evenodd" d="M244.272 45.556C243.32 45.556 242.548 46.3281 242.548 47.2806C242.548 48.2331 243.32 49.0053 244.272 49.0053C245.225 49.0053 245.997 48.2331 245.997 47.2806C245.997 46.3281 245.225 45.556 244.272 45.556ZM241.453 47.2806C241.453 45.7233 242.715 44.4609 244.272 44.4609C245.83 44.4609 247.092 45.7234 247.092 47.2806C247.092 48.8379 245.83 50.1003 244.272 50.1003C242.715 50.1003 241.453 48.8379 241.453 47.2806Z" fill="#FACC73"/>
<path fill-rule="evenodd" clip-rule="evenodd" d="M92.4222 25.6536C91.4697 25.6536 90.6976 26.4258 90.6976 27.3783C90.6976 28.3308 91.4697 29.1029 92.4222 29.1029C93.3747 29.1029 94.1469 28.3308 94.1469 27.3783C94.1469 26.4258 93.3747 25.6536 92.4222 25.6536ZM89.6025 27.3783C89.6025 25.821 90.8649 24.5586 92.4222 24.5586C93.9795 24.5586 95.2419 25.821 95.2419 27.3783C95.2419 28.9355 93.9795 30.1979 92.4222 30.1979C90.8649 30.1979 89.6025 28.9355 89.6025 27.3783Z" fill="#FACC73"/>
<path fill-rule="evenodd" clip-rule="evenodd" d="M60.9544 87.3177C60.0019 87.3177 59.2298 88.0898 59.2298 89.0423C59.2298 89.9948 60.0019 90.767 60.9544 90.767C61.9069 90.767 62.6791 89.9948 62.6791 89.0423C62.6791 88.0898 61.9069 87.3177 60.9544 87.3177ZM58.1348 89.0423C58.1348 87.4851 59.3972 86.2227 60.9544 86.2227C62.5117 86.2227 63.7741 87.4851 63.7741 89.0423C63.7741 90.5996 62.5117 91.862 60.9544 91.862C59.3972 91.862 58.1348 90.5996 58.1348 89.0423Z" fill="#FACC73"/>
<path d="M98.8765 6.63135C90.4141 20.0323 90.9677 38.6151 100.216 51.4798C106.379 60.0598 115.622 65.8045 122.961 73.3863C130.301 80.9628 135.879 92.1338 132.004 101.977C128.06 111.996 116.508 116.074 107.856 122.419C98.4336 129.331 91.8166 140.009 89.7867 151.567C87.7567 163.126 90.3456 175.443 96.8466 185.186H186.701C186.701 185.186 202.487 154.896 182.193 131.811C161.899 108.726 151.001 108.349 151.749 93.2116C152.503 78.0745 163.022 73.1527 169.038 67.477C175.049 61.8012 204.364 48.5543 187.075 6.63135H98.8765Z" fill="#FAFAFA"/>
<path d="M98.8766 6.63146C98.8766 6.63146 99.3986 6.62084 100.421 6.62084C101.45 6.62084 102.973 6.61553 104.977 6.61022C108.989 6.60491 114.9 6.59429 122.513 6.58367C137.756 6.57305 159.811 6.55713 187.081 6.53589H187.149L187.17 6.59429C188.399 9.73214 189.638 12.9656 190.518 16.3901C191.425 19.7988 192.164 23.356 192.427 27.0355C192.701 30.7096 192.585 34.5058 191.858 38.2754C191.109 42.0345 189.77 45.7564 187.798 49.2022C186.817 50.9277 185.662 52.5683 184.413 54.1452C183.153 55.7168 181.756 57.1928 180.274 58.6051C178.792 60.0121 177.216 61.3394 175.576 62.6084C173.942 63.8826 172.233 65.0879 170.567 66.3568C169.734 66.9886 168.97 67.7001 168.173 68.4116C167.372 69.1124 166.55 69.7867 165.722 70.4504C164.061 71.7883 162.384 73.1263 160.802 74.5864C157.607 77.4641 154.908 81.0585 153.421 85.2476C152.699 87.3342 152.182 89.5217 152.013 91.7623C151.971 92.3197 151.892 92.8772 151.876 93.44C151.866 94.0028 151.834 94.5656 151.86 95.1284C151.866 96.254 151.992 97.3849 152.198 98.4946C152.62 100.719 153.548 102.848 154.897 104.691C156.226 106.554 157.86 108.195 159.558 109.772C162.97 112.915 166.586 115.909 170.056 119.148C173.541 122.366 176.921 125.764 180.179 129.337C181.798 131.131 183.437 132.931 184.85 134.933C186.311 136.897 187.539 139.037 188.615 141.256C190.74 145.716 192.053 150.606 192.485 155.608C192.949 160.609 192.596 165.706 191.61 170.692C191.125 173.187 190.476 175.661 189.68 178.093C188.884 180.525 187.967 182.925 186.828 185.239L186.791 185.314H184.392C153.716 185.314 124.122 185.314 96.852 185.308H96.7834L96.7465 185.25C92.4652 178.778 89.9239 171.345 89.2226 163.89C88.4792 156.436 89.6181 148.966 92.3334 142.329C95.0119 135.671 99.1772 129.836 104.212 125.243C106.722 122.928 109.517 121.038 112.322 119.286C115.127 117.534 117.958 115.909 120.631 114.136C123.294 112.357 125.861 110.462 127.944 108.147C130.037 105.848 131.635 103.151 132.468 100.247C133.306 97.3424 133.317 94.2948 132.826 91.4278C132.326 88.5501 131.324 85.8264 130.048 83.3203C128.772 80.809 127.222 78.5047 125.524 76.4022C123.832 74.2944 121.949 72.4201 120.051 70.6521C116.25 67.1267 112.353 64.0419 108.852 60.8722C107.097 59.29 105.436 57.6972 103.907 56.0566C102.388 54.4054 100.996 52.717 99.8046 50.9649C97.4003 47.4713 95.75 43.7866 94.6639 40.2346C93.5777 36.6773 93.0399 33.2368 92.9134 30.0724C92.8396 29.2813 92.8712 28.5062 92.8712 27.7522C92.8818 26.9983 92.8607 26.255 92.9345 25.5382C92.9872 24.8214 93.0452 24.1206 93.0927 23.4357C93.1718 22.7561 93.2878 22.0977 93.3774 21.4606C94.1683 16.337 95.7026 12.5886 96.8994 10.1941C97.1842 9.58348 97.4372 9.04723 97.7114 8.61717C97.9698 8.17649 98.1807 7.80483 98.3547 7.5075C98.7026 6.91285 98.8766 6.62084 98.8766 6.62084C98.8397 6.68455 98.6921 6.94471 98.3652 7.52874C98.1965 7.82607 97.9856 8.19773 97.7325 8.63841C97.4636 9.06847 97.2158 9.60472 96.9311 10.2153C95.75 12.6151 94.2315 16.3583 93.4512 21.4765C93.3616 22.1136 93.2508 22.772 93.1718 23.4516C93.119 24.1312 93.0716 24.8321 93.0189 25.5488C92.945 26.2656 92.9661 27.0036 92.9609 27.7575C92.9609 28.5115 92.9345 29.2866 93.0083 30.0724C93.1401 33.2262 93.6832 36.6561 94.7746 40.2027C95.8607 43.7441 97.511 47.4076 99.9153 50.8852C101.107 52.6267 102.494 54.3098 104.012 55.9557C105.541 57.591 107.202 59.1785 108.958 60.7554C112.459 63.9145 116.355 66.9939 120.172 70.5247C122.07 72.2927 123.963 74.1722 125.672 76.2907C127.38 78.4038 128.935 80.7134 130.222 83.2407C131.503 85.7626 132.521 88.497 133.027 91.4012C133.522 94.2948 133.522 97.3743 132.674 100.316C131.83 103.252 130.211 105.986 128.108 108.306C126.004 110.648 123.426 112.554 120.758 114.338C118.074 116.122 115.248 117.746 112.448 119.499C109.648 121.251 106.87 123.13 104.376 125.434C99.3722 130.001 95.228 135.814 92.5707 142.435C89.8712 149.035 88.7428 156.463 89.4863 163.874C90.1875 171.286 92.7183 178.677 96.9733 185.112L96.8625 185.054C124.137 185.054 153.732 185.054 184.402 185.048H186.717L186.596 185.123C187.724 182.834 188.641 180.434 189.432 178.019C190.223 175.598 190.866 173.134 191.352 170.649C192.332 165.685 192.685 160.614 192.221 155.645C191.794 150.675 190.492 145.817 188.378 141.389C187.307 139.186 186.09 137.057 184.64 135.108C183.237 133.122 181.603 131.328 179.989 129.539C176.736 125.971 173.362 122.578 169.887 119.36C166.428 116.127 162.817 113.133 159.395 109.979C157.697 108.397 156.047 106.745 154.702 104.855C153.337 102.986 152.393 100.809 151.966 98.553C151.76 97.4221 151.634 96.2805 151.623 95.1443C151.597 94.5762 151.628 94.0081 151.639 93.44C151.66 92.8719 151.734 92.3091 151.781 91.7463C151.95 89.4898 152.472 87.2811 153.205 85.168C154.707 80.9417 157.439 77.3048 160.655 74.4112C162.247 72.9405 163.929 71.5972 165.59 70.2645C166.423 69.5955 167.24 68.9266 168.036 68.231C168.817 67.5302 169.602 66.8028 170.441 66.1657C172.117 64.8914 173.82 63.6915 175.45 62.4172C177.084 61.1536 178.655 59.8316 180.132 58.4299C181.603 57.0282 182.995 55.5575 184.249 53.9965C185.488 52.425 186.638 50.795 187.619 49.0854C189.58 45.6661 190.914 41.9655 191.663 38.233C192.39 34.4898 192.506 30.7096 192.237 27.0514C191.979 23.3826 191.241 19.8412 190.344 16.4432C189.469 13.0293 188.235 9.80117 187.012 6.66862L187.102 6.72703C159.848 6.70579 137.804 6.68986 122.571 6.67924C114.953 6.66862 109.037 6.658 105.024 6.65269C103.021 6.64738 101.487 6.64207 100.458 6.64207C99.4303 6.64207 98.8977 6.63146 98.8977 6.63146H98.8766Z" fill="#263238"/>
<path d="M183.495 31.2141C196.729 33.4069 175.861 57.0072 164.05 66.3198C157.212 71.7142 149.867 77.5598 146.619 85.6726C142.934 94.8791 145.665 105.222 143.878 114.481C143.582 116.021 141.326 115.777 141.347 114.211C141.436 108.131 141.273 102.057 140.271 96.0737C138.853 87.5893 135.61 79.1898 129.705 72.9725C124.886 67.8967 118.564 64.5199 113.418 59.7787C105.91 52.8499 98.1964 43.9142 97.4424 33.683C97.4424 33.683 111.857 21.9917 119.861 23.4677C129.215 25.1933 138.42 39.7251 152.909 38.0579C163.027 36.8952 168.131 28.6656 183.485 31.2088L183.495 31.2141Z" fill="#0064C8"/>
<path d="M184.671 157.546C184.339 154.211 183.454 150.442 180.517 148.87C178.74 147.92 176.573 148.026 174.622 148.541C172.671 149.056 170.842 149.948 168.912 150.527C165.11 151.663 160.945 151.53 157.223 150.155C153.632 148.828 150.548 146.428 147.215 144.538C143.883 142.648 139.976 141.246 136.264 142.175C129.864 143.778 126.531 151.541 120.204 153.415C117.394 154.249 114.373 153.781 111.51 153.128C108.652 152.475 105.779 151.636 102.852 151.748C100.559 151.833 98.1703 152.635 96.5569 154.217L96.5728 154.196C96.5728 154.196 96.5411 154.227 96.5253 154.249C96.2617 154.514 96.0191 154.795 95.7977 155.103C93.8363 157.737 93.52 161.284 94.1263 164.501C94.8012 168.106 96.4726 171.435 98.2652 174.626C100.38 178.385 102.779 182.128 106.269 184.629C110.577 187.719 115.997 185.585 121.269 186.004C133.57 186.981 146.809 187.65 159.11 186.689C165.611 186.179 171.701 186.891 176.858 182.877C180.485 180.052 182.847 175.794 183.986 171.318C185.125 166.842 185.12 162.149 184.656 157.551L184.671 157.546Z" fill="#0064C8"/>
<g opacity="0.24">
<path d="M161.451 151.164C160.755 152.236 160.46 153.67 161.13 154.758C161.799 155.847 162.706 156.834 162.996 158.082C163.455 160.036 162.284 161.953 161.409 163.758C159.848 166.991 159.142 170.676 159.664 174.233C160.191 177.79 162 181.183 164.826 183.381C166.075 184.353 167.699 185.107 169.207 184.629C170.625 184.183 171.543 182.733 171.822 181.263C172.102 179.792 171.87 178.279 171.685 176.798C170.826 169.906 171 162.887 172.207 156.048C172.407 154.907 172.603 153.601 171.88 152.693C171.422 152.114 170.689 151.843 169.987 151.605C167.246 150.686 164.288 151.705 161.446 151.164" fill="black"/>
</g>
<path d="M90.2562 189.301C90.2562 189.301 90.0084 185.149 95.3863 182.834H189.896C189.896 182.834 194.826 185.346 195.433 189.211L90.2562 189.296V189.301Z" fill="#263238"/>
<path d="M187.898 7.14126C187.851 7.1625 187.798 7.18905 187.75 7.21028L98.882 6.63687C98.882 6.63687 98.5656 6.43511 98.0963 6.06346C95.5655 4.06712 96.9838 -0.0264185 100.2 0.000128496L186.453 0.700968C190.012 0.727515 191.12 5.61215 187.903 7.14657L187.898 7.14126Z" fill="#263238"/>
<g opacity="0.24">
<path d="M173.673 41.2754C173.852 41.6205 173.182 42.3691 171.912 43.5053C170.636 44.6469 168.769 46.2078 166.397 48.1351C164.013 50.0465 161.124 52.3455 157.444 54.4958C155.599 55.5683 153.548 56.5399 151.307 57.331C150.178 57.7133 149.008 58.069 147.779 58.3132C146.556 58.5787 145.28 58.7539 143.967 58.8123C141.352 58.961 138.69 58.5787 136.306 57.7557C133.939 56.9275 131.914 55.7594 130.148 54.5914C128.376 53.4074 126.847 52.2393 125.408 51.1243C123.974 50.004 122.666 48.9262 121.501 47.9068C116.835 43.8345 114.378 40.84 114.852 40.2613C115.343 39.6613 118.649 41.5674 123.795 44.753C125.081 45.5495 126.489 46.4202 128.002 47.3546C129.51 48.2785 131.134 49.3032 132.79 50.2483C134.45 51.1933 136.185 52.0535 137.983 52.6109C139.77 53.1472 141.674 53.402 143.698 53.2905C147.748 53.0835 151.676 51.6446 155.077 49.9934C158.498 48.3103 161.556 46.399 164.224 44.8964C166.887 43.3779 169.17 42.2523 170.826 41.6524C172.486 41.0524 173.504 40.9462 173.673 41.2754Z" fill="black"/>
</g>
<path d="M141.415 125.578C142.391 125.233 143.556 126.22 143.387 127.245C143.213 128.27 141.79 128.822 140.983 128.174C140.176 127.527 140.387 126.008 141.342 125.61" fill="#0064C8"/>
<path d="M109.632 56.0886C109.632 56.0886 109.516 55.9877 109.316 55.7701C109.105 55.5364 108.815 55.2179 108.457 54.8197C108.093 54.4002 107.613 53.9118 107.123 53.2906C106.627 52.6694 106.063 51.9632 105.446 51.188C104.871 50.3704 104.223 49.4944 103.569 48.5174C103.258 48.0183 102.936 47.5033 102.604 46.9724C102.441 46.7069 102.267 46.4415 102.109 46.1601C101.956 45.8787 101.803 45.592 101.645 45.2999C100.347 43.001 99.1928 40.3038 98.3703 37.3624C97.5478 34.4157 97.1629 31.5061 97.126 28.8567C97.126 28.1931 97.1576 27.5506 97.1734 26.9241C97.1892 26.6109 97.184 26.3029 97.2156 26.0003C97.2472 25.6977 97.2789 25.4003 97.3105 25.1083C97.3791 24.5243 97.4212 23.9562 97.5003 23.4146C97.5952 22.8784 97.6901 22.3634 97.7798 21.8696C97.9327 20.8767 98.191 20.0113 98.3756 19.2414C98.4757 18.8592 98.5548 18.4981 98.655 18.1742C98.7605 17.8557 98.8554 17.5584 98.945 17.2876C99.1137 16.7779 99.2508 16.3691 99.351 16.0664C99.4459 15.7903 99.4986 15.647 99.5092 15.647C99.5197 15.647 99.4828 15.8009 99.4037 16.0823C99.3141 16.3903 99.1981 16.7991 99.0452 17.3141C98.9661 17.5849 98.8765 17.8822 98.7816 18.2008C98.6866 18.5247 98.6181 18.891 98.5232 19.2733C98.3492 20.0432 98.1067 20.9139 97.9696 21.9014C97.8852 22.3952 97.8009 22.9049 97.7112 23.4412C97.6374 23.9774 97.6005 24.5455 97.5372 25.1242C97.5109 25.4163 97.4792 25.7136 97.4476 26.0109C97.4212 26.3135 97.4265 26.6215 97.416 26.9294C97.4054 27.5506 97.3738 28.1931 97.3791 28.8514C97.4265 31.4796 97.8167 34.3626 98.6339 37.2881C99.4512 40.2082 100.59 42.8842 101.866 45.1778C102.019 45.4698 102.172 45.7565 102.325 46.0379C102.478 46.3193 102.652 46.5795 102.815 46.8503C103.142 47.3812 103.458 47.8962 103.764 48.3953C104.407 49.3722 105.045 50.2536 105.609 51.0712C106.216 51.857 106.764 52.5632 107.249 53.195C107.724 53.8268 108.193 54.3206 108.541 54.756C108.884 55.1701 109.158 55.494 109.364 55.7382C109.548 55.9665 109.643 56.0886 109.638 56.0939L109.632 56.0886Z" fill="#263238"/>
<path d="M104.629 134.965C104.629 134.965 104.661 134.901 104.729 134.79C104.808 134.668 104.908 134.503 105.04 134.291C105.183 134.068 105.357 133.797 105.557 133.484L105.889 132.969C106.021 132.793 106.168 132.618 106.321 132.422C106.632 132.039 106.98 131.615 107.355 131.148C107.761 130.707 108.225 130.25 108.715 129.751C109.717 128.774 110.924 127.734 112.332 126.682C115.132 124.548 118.743 122.424 122.656 119.945C124.596 118.686 126.642 117.359 128.577 115.745C130.512 114.142 132.378 112.294 133.891 110.09C136.87 105.631 138.078 100.465 138.189 95.8454C138.31 91.1943 137.324 87.0477 136.169 83.7452C134.999 80.4322 133.654 77.9049 132.679 76.2059C132.188 75.3511 131.788 74.7033 131.514 74.2627C131.382 74.0503 131.282 73.8857 131.202 73.7636C131.134 73.6521 131.102 73.5884 131.102 73.5884C131.102 73.5884 131.15 73.6415 131.224 73.7477L131.556 74.2361C131.846 74.6662 132.262 75.3086 132.768 76.1528C133.775 77.8412 135.152 80.3579 136.354 83.6815C137.54 86.9946 138.552 91.1625 138.447 95.856C138.426 97.024 138.331 98.224 138.157 99.4345C137.988 100.65 137.735 101.877 137.387 103.103C136.707 105.556 135.621 107.999 134.129 110.25C132.6 112.485 130.712 114.349 128.761 115.957C126.81 117.582 124.759 118.904 122.809 120.162C118.881 122.631 115.269 124.734 112.464 126.842C111.056 127.882 109.843 128.902 108.836 129.863C108.346 130.356 107.877 130.802 107.471 131.238C107.091 131.694 106.738 132.114 106.422 132.491C106.263 132.682 106.11 132.852 105.979 133.027C105.857 133.208 105.741 133.377 105.636 133.531C105.425 133.839 105.246 134.105 105.098 134.323C104.956 134.524 104.845 134.684 104.761 134.806C104.682 134.912 104.645 134.97 104.639 134.965H104.629Z" fill="#263238"/>
<path d="M99.7257 144.347C99.7257 144.347 99.694 144.437 99.6097 144.591L99.2353 145.265C99.0666 145.552 98.8662 145.913 98.6606 146.343C98.455 146.773 98.1914 147.246 97.9699 147.803C97.8539 148.079 97.7274 148.366 97.6008 148.669C97.4743 148.971 97.3688 149.295 97.2476 149.624C96.9892 150.277 96.7889 151.005 96.5622 151.764C96.1562 153.293 95.8187 155.003 95.6395 156.824C95.4813 158.645 95.5076 160.392 95.6289 161.969C95.7185 162.754 95.7818 163.508 95.9189 164.199C95.9822 164.544 96.0244 164.883 96.0929 165.202C96.1667 165.521 96.2353 165.823 96.3038 166.121C96.4198 166.71 96.5938 167.225 96.7203 167.681C96.8416 168.143 96.9734 168.531 97.0894 168.844C97.1896 169.136 97.2687 169.38 97.3372 169.577C97.3899 169.747 97.4163 169.837 97.4058 169.842C97.3952 169.842 97.3583 169.763 97.2845 169.598C97.2054 169.407 97.1052 169.168 96.9892 168.881C96.8574 168.568 96.7098 168.186 96.5727 167.724C96.4303 167.267 96.2458 166.752 96.114 166.163C96.0402 165.871 95.9664 165.563 95.8873 165.244C95.8082 164.926 95.7607 164.586 95.6922 164.236C95.5446 163.54 95.4707 162.781 95.3758 161.99C95.2387 160.397 95.2071 158.634 95.3653 156.797C95.5446 154.96 95.8925 153.235 96.3143 151.695C96.5516 150.93 96.7625 150.203 97.0314 149.545C97.1632 149.215 97.2687 148.886 97.4058 148.589C97.5428 148.292 97.6694 148 97.7959 147.729C98.0332 147.171 98.3074 146.699 98.5288 146.279C98.745 145.855 98.9612 145.504 99.1457 145.217C99.3144 144.957 99.4515 144.74 99.5675 144.564C99.6677 144.416 99.7204 144.341 99.7309 144.347H99.7257Z" fill="#263238"/>
<path d="M164.91 157.105C164.91 157.105 164.878 157.137 164.804 157.185L164.477 157.392C164.166 157.583 163.739 157.838 163.196 158.167C162.917 158.337 162.605 158.517 162.268 158.719C161.92 158.91 161.535 159.091 161.124 159.303C160.296 159.707 159.373 160.216 158.287 160.63C157.749 160.853 157.185 161.087 156.6 161.326C156.015 161.565 155.377 161.745 154.734 161.974C153.452 162.446 152.029 162.781 150.547 163.174C147.552 163.843 144.204 164.336 140.661 164.453C137.118 164.528 133.744 164.209 130.717 163.699C129.215 163.386 127.78 163.126 126.473 162.722C125.819 162.531 125.176 162.383 124.575 162.175C123.979 161.963 123.404 161.761 122.856 161.57C121.749 161.214 120.805 160.753 119.956 160.391C119.534 160.206 119.139 160.041 118.78 159.871C118.432 159.685 118.116 159.521 117.826 159.367C117.267 159.069 116.829 158.831 116.508 158.661L116.17 158.469C116.096 158.427 116.06 158.4 116.06 158.395C116.06 158.395 116.102 158.406 116.186 158.443C116.281 158.485 116.397 158.544 116.539 158.608C116.866 158.767 117.314 158.99 117.879 159.266C118.169 159.409 118.49 159.574 118.843 159.749C119.202 159.914 119.603 160.068 120.025 160.248C120.879 160.593 121.822 161.039 122.93 161.384C123.478 161.57 124.047 161.767 124.649 161.974C125.244 162.175 125.888 162.319 126.541 162.505C127.844 162.898 129.273 163.147 130.77 163.45C133.781 163.943 137.134 164.251 140.661 164.182C144.183 164.071 147.515 163.588 150.5 162.935C151.976 162.552 153.394 162.229 154.676 161.767C155.319 161.549 155.952 161.368 156.537 161.14C157.122 160.907 157.686 160.678 158.219 160.466C159.305 160.068 160.228 159.569 161.061 159.181C161.472 158.979 161.862 158.804 162.21 158.618C162.553 158.427 162.864 158.247 163.149 158.087C163.697 157.779 164.134 157.535 164.451 157.36C164.588 157.286 164.704 157.227 164.794 157.174C164.873 157.132 164.915 157.116 164.915 157.121L164.91 157.105Z" fill="#263238"/>
<path d="M170.409 44.7371C170.409 44.7371 170.372 44.7742 170.298 44.8432C170.209 44.9176 170.093 45.0131 169.95 45.13C169.629 45.3901 169.175 45.7512 168.606 46.2131C167.43 47.1475 165.738 48.5014 163.592 50.1155C161.446 51.7189 158.841 53.5878 155.752 55.3346C154.191 56.1735 152.525 57.0336 150.7 57.676C148.881 58.3238 146.92 58.8176 144.869 58.9822C140.751 59.2636 136.844 58.2123 133.67 56.6354C132.083 55.8337 130.649 54.9364 129.341 54.0444C128.055 53.1312 126.879 52.2445 125.84 51.395C123.753 49.7066 122.118 48.2784 120.979 47.3015C120.426 46.8183 119.988 46.4414 119.677 46.1653C119.54 46.0432 119.429 45.9423 119.345 45.8626C119.271 45.7936 119.234 45.7565 119.239 45.7511C119.239 45.7511 119.287 45.7777 119.366 45.8414L119.719 46.1228C120.041 46.383 120.489 46.7493 121.053 47.2165C122.208 48.1722 123.863 49.5739 125.962 51.2411C127.006 52.08 128.187 52.9507 129.473 53.8533C130.776 54.7293 132.204 55.616 133.781 56.4071C136.934 57.9574 140.788 58.9822 144.853 58.7061C146.873 58.5468 148.808 58.0583 150.611 57.4212C152.419 56.7894 154.075 55.9399 155.63 55.1116C158.715 53.3861 161.319 51.5384 163.481 49.9562C165.638 48.3634 167.351 47.036 168.543 46.1281C169.128 45.6874 169.592 45.337 169.919 45.0875C170.066 44.976 170.188 44.891 170.283 44.822C170.367 44.7636 170.409 44.7371 170.414 44.7371H170.409Z" fill="#263238"/>
<g opacity="0.24">
<path d="M122.856 161.565C125.355 159.622 128.867 160.094 131.951 160.747C135.041 161.4 138.152 162.462 141.278 162.022C143.635 161.687 145.797 160.524 148.122 160.015C150.447 159.505 153.268 159.882 154.554 161.894C144.326 165.244 133.011 165.122 122.856 161.56" fill="black"/>
</g>
<path d="M210.047 147.155L198.69 134.354L198.574 149.916L201.991 159.898L168.025 165.828L166.586 138.841L164.139 118.113C163.839 115.575 165.278 113.148 167.64 112.214L176.988 108.508L190.154 110.94L195.447 112.968C197.672 113.817 199.655 115.209 201.221 117.008L217.165 135.368" fill="#0064C8"/>
<path d="M197.899 131.291C197.899 131.238 198.648 131.349 199.818 131.153C200.978 130.972 202.581 130.399 203.91 129.167C205.238 127.93 205.929 126.369 206.203 125.222C206.488 124.065 206.44 123.305 206.493 123.305C206.509 123.305 206.535 123.491 206.541 123.831C206.546 124.171 206.514 124.665 206.393 125.265C206.161 126.454 205.476 128.084 204.094 129.369C202.713 130.648 201.041 131.206 199.844 131.344C199.243 131.418 198.753 131.413 198.416 131.376C198.078 131.344 197.899 131.301 197.899 131.285V131.291Z" fill="white"/>
<path d="M198.89 149.252C198.969 149.252 198.99 143.858 198.938 137.211C198.885 130.558 198.774 125.169 198.695 125.169C198.616 125.169 198.595 130.558 198.648 137.211C198.7 143.858 198.811 149.247 198.89 149.247V149.252Z" fill="#263238"/>
<path d="M197.646 153.213L177.12 144.893C175.464 144.224 174.331 142.663 174.194 140.874L172.691 121.059C172.691 121.059 172.87 112.633 167.64 112.225L164.666 113.403C160.823 115.458 159.874 121.091 160.396 125.445C161.139 131.625 161.45 140.375 162.283 145.737C162.963 150.128 165.462 153.988 169.728 155.119L195.004 160.63L197.646 153.218V153.213Z" fill="#0064C8"/>
<path d="M172.992 124.075C172.992 124.075 173.023 124.229 173.055 124.526C173.087 124.85 173.134 125.286 173.187 125.833C173.292 126.995 173.44 128.631 173.619 130.638C173.793 132.676 173.999 135.087 174.225 137.768C174.283 138.437 174.341 139.127 174.399 139.828C174.463 140.529 174.505 141.251 174.663 141.947C174.816 142.647 175.148 143.306 175.681 143.805C176.213 144.304 176.878 144.676 177.574 144.989C183.231 147.452 188.451 149.491 192.236 150.919C194.113 151.615 195.643 152.183 196.734 152.587C197.245 152.778 197.651 152.926 197.957 153.038C198.237 153.144 198.379 153.202 198.379 153.213C198.379 153.224 198.226 153.181 197.941 153.091C197.636 152.99 197.224 152.857 196.702 152.687C195.627 152.326 194.082 151.79 192.173 151.1C188.366 149.72 183.141 147.713 177.463 145.238C176.756 144.914 176.066 144.538 175.496 144.001C174.921 143.47 174.552 142.738 174.399 142.005C174.236 141.272 174.199 140.545 174.136 139.844C174.078 139.143 174.025 138.453 173.972 137.784C173.767 135.103 173.582 132.687 173.424 130.648C173.276 128.636 173.16 127.001 173.076 125.838C173.044 125.291 173.018 124.85 172.997 124.526C172.981 124.229 172.976 124.07 172.986 124.07L172.992 124.075Z" fill="#263238"/>
<path d="M161.234 134.848C161.234 134.848 161.255 134.938 161.276 135.113L161.344 135.878C161.408 136.584 161.487 137.534 161.587 138.692C161.698 139.876 161.84 141.288 162.046 142.849C162.257 144.405 162.504 146.125 162.974 147.867C163.195 148.748 163.506 149.56 163.975 150.261C164.445 150.967 164.967 151.599 165.51 152.157C166.596 153.271 167.756 154.094 168.794 154.636C170.893 155.735 172.422 155.751 172.401 155.825C172.401 155.836 172.306 155.831 172.132 155.82C171.958 155.809 171.7 155.788 171.373 155.719C170.719 155.602 169.775 155.342 168.705 154.811C167.635 154.28 166.443 153.463 165.33 152.337C164.777 151.769 164.239 151.132 163.754 150.415C163.264 149.693 162.931 148.828 162.71 147.946C162.235 146.173 161.993 144.453 161.798 142.886C161.608 141.32 161.481 139.902 161.397 138.713C161.313 137.524 161.265 136.558 161.239 135.894C161.234 135.586 161.228 135.331 161.223 135.124C161.223 134.949 161.223 134.853 161.239 134.853L161.234 134.848Z" fill="#263238"/>
<path d="M170.007 148.716C169.981 148.711 170.065 148.265 170.382 147.617C170.693 146.969 171.268 146.125 172.106 145.403C172.944 144.681 173.862 144.24 174.547 144.033C175.238 143.821 175.681 143.805 175.686 143.831C175.697 143.879 175.264 143.964 174.61 144.214C173.957 144.463 173.092 144.915 172.285 145.605C171.478 146.3 170.899 147.091 170.556 147.702C170.208 148.313 170.055 148.727 170.013 148.711L170.007 148.716Z" fill="#263238"/>
<path d="M174.046 133.648C174.046 133.648 174.093 133.664 174.178 133.707C174.273 133.76 174.394 133.823 174.547 133.903C174.874 134.057 175.359 134.306 176.013 134.529C177.304 134.981 179.324 135.437 181.765 135.023C184.174 134.625 186.974 133.197 188.914 130.547C189.874 129.241 190.617 127.633 190.786 125.865C190.871 124.989 190.802 124.075 190.512 123.215C190.233 122.355 189.716 121.564 189.03 120.937C188.35 120.311 187.507 119.87 186.621 119.759C185.746 119.621 184.812 119.854 184.206 120.444C183.916 120.741 183.732 121.134 183.737 121.543C183.737 121.952 183.89 122.35 184.132 122.679C184.617 123.348 185.44 123.661 186.22 123.778C187.818 124.001 189.389 123.709 190.707 123.13C192.031 122.551 193.111 121.686 193.886 120.736C194.667 119.78 195.147 118.745 195.431 117.81C195.721 116.87 195.806 116.016 195.821 115.325C195.832 114.63 195.758 114.094 195.705 113.733C195.674 113.563 195.653 113.43 195.632 113.324C195.616 113.234 195.611 113.18 195.616 113.18C195.616 113.18 195.906 113.918 195.932 115.325C195.932 116.026 195.864 116.892 195.584 117.858C195.305 118.814 194.83 119.876 194.039 120.863C193.254 121.845 192.152 122.737 190.802 123.343C189.452 123.943 187.844 124.256 186.189 124.033C185.371 123.916 184.48 123.592 183.927 122.844C183.658 122.482 183.473 122.026 183.473 121.548C183.468 121.07 183.684 120.598 184.022 120.258C184.707 119.589 185.725 119.35 186.663 119.493C187.612 119.615 188.508 120.083 189.22 120.741C189.937 121.399 190.48 122.233 190.776 123.136C191.076 124.038 191.15 124.989 191.06 125.896C190.881 127.723 190.111 129.374 189.125 130.707C187.132 133.404 184.259 134.843 181.802 135.22C179.313 135.618 177.273 135.119 175.981 134.636C174.673 134.131 174.056 133.659 174.056 133.659L174.046 133.648Z" fill="white"/>
<path d="M160.601 128.36C160.601 128.36 160.701 128.195 160.938 127.935C161.176 127.68 161.539 127.33 162.046 126.964C163.042 126.21 164.692 125.525 166.585 125.344C167.534 125.243 168.452 125.286 169.258 125.456C170.07 125.626 170.766 125.902 171.32 126.183C171.874 126.465 172.295 126.746 172.575 126.953C172.854 127.16 172.997 127.287 172.986 127.303C172.96 127.346 172.343 126.879 171.236 126.364C170.139 125.838 168.462 125.397 166.612 125.62C164.756 125.796 163.153 126.433 162.151 127.128C161.133 127.808 160.633 128.402 160.596 128.36H160.601Z" fill="white"/>
<path d="M163.886 114.194C163.928 114.147 164.413 114.826 165.547 115.41C166.106 115.702 166.833 115.946 167.661 116.037C168.489 116.127 169.422 116.031 170.308 115.67C171.188 115.293 171.916 114.699 172.438 114.046C172.965 113.393 173.303 112.708 173.498 112.097C173.888 110.876 173.756 110.053 173.819 110.053C173.835 110.053 173.877 110.249 173.888 110.616C173.904 110.982 173.862 111.518 173.682 112.15C173.508 112.782 173.176 113.509 172.638 114.2C172.106 114.885 171.347 115.522 170.413 115.92C169.475 116.302 168.494 116.392 167.635 116.286C166.77 116.18 166.027 115.904 165.457 115.58C164.888 115.256 164.482 114.906 164.234 114.64C163.986 114.37 163.875 114.2 163.886 114.194Z" fill="white"/>
<path d="M181.771 146.773C181.771 146.773 181.776 146.64 181.813 146.38C181.871 146.13 181.95 145.753 182.177 145.313C182.593 144.421 183.621 143.306 185.25 142.626C186.853 141.899 189.062 141.761 191.282 142.409C192.368 142.732 193.613 143.136 194.425 144.203C194.825 144.729 194.957 145.509 194.657 146.146C194.367 146.789 193.797 147.229 193.196 147.537C192.584 147.84 191.92 148.01 191.251 148.021C190.591 148.031 189.901 147.867 189.384 147.437C188.862 147.012 188.588 146.359 188.551 145.732C188.504 145.1 188.63 144.495 188.83 143.943C189.706 141.734 191.472 140.327 193.059 139.632C194.672 138.92 196.133 138.846 197.098 138.931C198.068 139.032 198.574 139.244 198.574 139.244C198.564 139.281 198.052 139.106 197.092 139.037C196.138 138.984 194.709 139.09 193.143 139.807C192.363 140.163 191.562 140.678 190.839 141.379C190.122 142.079 189.474 142.971 189.073 144.023C188.883 144.548 188.772 145.127 188.815 145.706C188.857 146.279 189.099 146.847 189.558 147.219C190.011 147.596 190.634 147.75 191.251 147.734C191.873 147.723 192.5 147.559 193.075 147.277C193.639 146.991 194.161 146.576 194.409 146.024C194.667 145.477 194.562 144.824 194.208 144.352C193.86 143.869 193.354 143.523 192.838 143.253C192.316 142.987 191.757 142.807 191.214 142.642C189.036 141.994 186.895 142.111 185.324 142.796C183.727 143.439 182.704 144.495 182.271 145.35C181.823 146.21 181.807 146.773 181.771 146.762V146.773Z" fill="white"/>
<path d="M168.104 154.238C168.094 154.185 168.884 154.121 170.071 153.691C171.252 153.277 172.818 152.422 174.104 150.994C175.391 149.56 176.071 147.904 176.366 146.677C176.667 145.446 176.656 144.649 176.709 144.649C176.725 144.649 176.746 144.846 176.741 145.207C176.735 145.568 176.688 146.088 176.561 146.72C176.313 147.978 175.639 149.698 174.315 151.174C172.992 152.65 171.357 153.5 170.139 153.872C169.528 154.063 169.016 154.164 168.663 154.206C168.31 154.249 168.109 154.249 168.109 154.233L168.104 154.238Z" fill="white"/>
<path d="M161.45 138.835C161.45 138.835 161.534 138.793 161.698 138.734C161.861 138.681 162.109 138.602 162.431 138.522C163.069 138.368 164.028 138.15 165.225 138.235C165.821 138.283 166.475 138.421 167.123 138.708C167.772 138.995 168.415 139.451 168.895 140.11C169.364 140.768 169.654 141.623 169.586 142.52C169.554 142.966 169.417 143.412 169.18 143.81C168.937 144.203 168.579 144.559 168.104 144.718C167.635 144.867 167.086 144.792 166.717 144.442C166.354 144.086 166.264 143.587 166.238 143.152C166.206 142.27 166.396 141.426 166.723 140.694C167.376 139.212 168.589 138.241 169.717 137.832C170.851 137.407 171.858 137.439 172.507 137.556C172.833 137.614 173.087 137.688 173.25 137.747C173.413 137.811 173.498 137.848 173.493 137.853C173.482 137.88 173.139 137.742 172.491 137.662C171.848 137.582 170.872 137.588 169.786 138.018C168.71 138.432 167.566 139.377 166.955 140.8C166.649 141.501 166.475 142.308 166.506 143.141C166.528 143.545 166.622 143.975 166.902 144.246C167.181 144.511 167.63 144.58 168.02 144.458C168.41 144.33 168.731 144.023 168.948 143.672C169.164 143.316 169.285 142.908 169.317 142.499C169.385 141.681 169.122 140.874 168.689 140.258C168.246 139.642 167.64 139.202 167.028 138.915C166.412 138.628 165.784 138.485 165.204 138.426C164.039 138.32 163.09 138.501 162.447 138.623C161.803 138.756 161.45 138.851 161.445 138.83L161.45 138.835Z" fill="white"/>
<g opacity="0.3">
<path d="M191.751 150.851C189.558 149.603 187.412 148.642 185.113 147.591C182.82 146.539 180.573 145.191 179.071 143.152C176.239 139.308 176.561 133.76 173.661 129.963C173.851 132.512 174.041 135.066 174.231 137.614C174.405 139.95 174.046 142.265 175.543 143.853C176.804 145.191 179.261 146.215 181 146.794C184.496 147.957 188.261 149.677 191.751 150.84" fill="black"/>
</g>
<path d="M227.409 179.973C227.409 179.973 244.582 184.756 245.273 185.001C246.306 185.367 246.132 189.184 244.524 189.126C243.765 189.099 231.332 189.593 229.761 189.492C228.19 189.391 223.455 187.512 223.455 187.512L227.409 179.967V179.973Z" fill="#0064C8"/>
<path d="M234.564 186.572C234.649 186.583 234.765 185.669 235.323 184.714C235.866 183.753 236.589 183.19 236.536 183.121C236.504 183.052 235.656 183.54 235.07 184.57C234.48 185.59 234.49 186.577 234.564 186.572Z" fill="#263238"/>
<path d="M232.772 185.754C232.856 185.77 233.03 184.953 233.489 184.05C233.937 183.142 234.485 182.516 234.422 182.457C234.375 182.399 233.705 182.967 233.231 183.923C232.751 184.873 232.698 185.754 232.772 185.76V185.754Z" fill="#263238"/>
<path d="M231.095 185.298C231.179 185.293 231.116 184.427 231.496 183.471C231.86 182.505 232.492 181.916 232.429 181.852C232.392 181.788 231.622 182.319 231.227 183.365C230.816 184.406 231.021 185.324 231.095 185.298Z" fill="#263238"/>
<path d="M231.401 183.068C231.432 183.073 231.585 182.595 231.585 181.783C231.585 181.379 231.538 180.896 231.411 180.371C231.348 180.111 231.264 179.84 231.158 179.569C231.1 179.431 231.037 179.272 230.884 179.144C230.726 179.001 230.431 179.027 230.294 179.176C230.135 179.314 230.088 179.511 230.067 179.665C230.051 179.824 230.041 179.972 230.046 180.121C230.046 180.418 230.088 180.705 230.151 180.965C230.278 181.491 230.483 181.937 230.679 182.287C231.079 182.988 231.427 183.349 231.448 183.328C231.485 183.301 231.2 182.898 230.858 182.192C230.689 181.841 230.515 181.406 230.41 180.907C230.357 180.657 230.325 180.392 230.325 180.116C230.331 179.85 230.325 179.516 230.483 179.388C230.568 179.319 230.642 179.314 230.71 179.367C230.784 179.426 230.847 179.542 230.9 179.67C231.005 179.93 231.095 180.185 231.158 180.434C231.295 180.933 231.359 181.395 231.385 181.783C231.438 182.563 231.359 183.057 231.406 183.063L231.401 183.068Z" fill="#263238"/>
<path d="M231.38 182.887C231.385 182.855 230.974 182.712 230.272 182.707C229.924 182.707 229.502 182.744 229.054 182.855C228.833 182.914 228.596 182.972 228.353 183.116C228.116 183.238 227.873 183.567 227.963 183.907C228.037 184.231 228.311 184.454 228.58 184.523C228.854 184.597 229.118 184.57 229.35 184.523C229.819 184.411 230.188 184.177 230.467 183.97C231.016 183.535 231.285 183.201 231.264 183.179C231.232 183.142 230.91 183.429 230.346 183.806C230.067 183.986 229.713 184.183 229.292 184.262C229.081 184.305 228.859 184.316 228.654 184.252C228.453 184.193 228.285 184.039 228.237 183.843C228.19 183.652 228.306 183.471 228.49 183.36C228.675 183.243 228.901 183.179 229.112 183.116C229.539 182.994 229.935 182.935 230.267 182.914C230.937 182.866 231.358 182.935 231.369 182.887H231.38Z" fill="#263238"/>
<path d="M237.206 186.753C237.29 186.742 237.206 186.004 237.543 185.192C237.865 184.374 238.44 183.907 238.382 183.838C238.355 183.769 237.633 184.178 237.274 185.08C236.905 185.983 237.132 186.779 237.201 186.747L237.206 186.753Z" fill="#263238"/>
<path d="M225.221 187.554C225.221 187.554 225.448 187.682 225.886 187.868C226.329 188.037 226.972 188.271 227.794 188.462C229.434 188.876 231.781 189.115 234.348 189.089C236.921 189.062 239.241 188.94 240.923 188.876C241.719 188.834 242.384 188.797 242.911 188.77C243.38 188.738 243.638 188.712 243.638 188.691C243.638 188.669 243.375 188.659 242.906 188.659C242.378 188.659 241.709 188.669 240.913 188.675C239.173 188.706 236.879 188.754 234.343 188.802C231.781 188.829 229.471 188.627 227.831 188.266C226.192 187.926 225.232 187.501 225.211 187.554H225.221Z" fill="#263238"/>
<path d="M224.715 187.947C224.736 187.99 225.211 187.708 226.002 187.358C226.787 187.018 227.963 186.615 229.25 186.816C230.541 187.018 231.459 187.889 232.06 188.499C232.661 189.131 233.014 189.545 233.051 189.519C233.078 189.498 232.782 189.036 232.213 188.361C231.923 188.027 231.554 187.639 231.074 187.289C230.599 186.939 229.988 186.636 229.302 186.53C227.916 186.317 226.698 186.785 225.923 187.172C225.137 187.576 224.705 187.915 224.721 187.942L224.715 187.947Z" fill="#263238"/>
<path d="M209.182 175.199C209.182 175.199 192.932 185.914 192.347 186.354C191.472 187.018 192.474 190.193 193.992 189.641C194.709 189.381 208.344 185.563 209.81 184.984C211.275 184.406 215.224 181.172 215.224 181.172L209.182 175.194V175.199Z" fill="#0064C8"/>
<path d="M204.358 183.673C204.432 183.657 204.142 182.712 203.272 181.921C202.407 181.119 201.448 180.917 201.442 180.992C201.411 181.077 202.275 181.384 203.077 182.138C203.894 182.876 204.279 183.715 204.358 183.678V183.673Z" fill="#263238"/>
<path d="M205.819 182.346C205.887 182.319 205.571 181.496 204.827 180.737C204.089 179.972 203.277 179.638 203.251 179.707C203.209 179.781 203.92 180.211 204.622 180.939C205.328 181.661 205.739 182.383 205.819 182.346Z" fill="#263238"/>
<path d="M207.279 181.401C207.353 181.401 207.274 180.466 206.567 179.601C205.871 178.73 204.98 178.454 204.964 178.528C204.927 178.608 205.702 178.974 206.34 179.781C206.994 180.578 207.189 181.422 207.274 181.401H207.279Z" fill="#263238"/>
<path d="M206.314 179.367C206.356 179.346 206.135 178.905 205.945 178.14C205.85 177.758 205.776 177.302 205.755 176.787C205.745 176.532 205.75 176.261 205.771 175.98C205.782 175.847 205.803 175.714 205.861 175.634C205.913 175.56 205.982 175.544 206.082 175.581C206.267 175.656 206.367 175.974 206.451 176.224C206.535 176.484 206.588 176.749 206.609 177.004C206.662 177.514 206.62 177.981 206.567 178.369C206.451 179.144 206.298 179.617 206.346 179.632C206.377 179.643 206.599 179.197 206.767 178.406C206.852 178.013 206.91 177.525 206.873 176.983C206.852 176.712 206.804 176.431 206.72 176.144C206.678 176.001 206.625 175.863 206.562 175.714C206.493 175.571 206.388 175.401 206.198 175.316C206.024 175.22 205.734 175.279 205.629 175.47C205.518 175.64 205.507 175.81 205.497 175.958C205.476 176.25 205.476 176.532 205.497 176.803C205.534 177.339 205.634 177.811 205.755 178.199C206.003 178.974 206.293 179.383 206.319 179.367H206.314Z" fill="#263238"/>
<path d="M206.282 179.192C206.303 179.234 206.683 179.038 207.337 178.879C207.664 178.799 208.059 178.73 208.502 178.719C208.723 178.719 208.961 178.709 209.171 178.762C209.382 178.81 209.551 178.942 209.562 179.144C209.577 179.351 209.461 179.548 209.287 179.664C209.113 179.786 208.892 179.84 208.681 179.866C208.254 179.914 207.864 179.84 207.537 179.749C206.888 179.563 206.493 179.388 206.477 179.436C206.467 179.468 206.82 179.702 207.479 179.946C207.806 180.063 208.228 180.169 208.708 180.132C208.945 180.11 209.203 180.057 209.44 179.898C209.678 179.749 209.873 179.452 209.841 179.123C209.825 178.767 209.493 178.533 209.235 178.491C208.961 178.427 208.718 178.448 208.486 178.459C208.022 178.491 207.611 178.581 207.279 178.687C206.614 178.905 206.261 179.171 206.277 179.197L206.282 179.192Z" fill="#263238"/>
<path d="M196.064 189.046C196.064 189.046 196.339 188.881 196.46 188.414C196.597 187.958 196.513 187.251 196.154 186.641C195.985 186.328 195.79 186.062 195.611 185.823C195.432 185.584 195.247 185.372 195.057 185.229C194.867 185.08 194.672 185.016 194.541 185.011C194.403 185.006 194.335 185.037 194.335 185.053C194.335 185.096 194.625 185.075 194.925 185.383C195.078 185.531 195.231 185.733 195.395 185.977C195.563 186.221 195.743 186.487 195.901 186.774C196.228 187.352 196.328 187.947 196.259 188.372C196.201 188.796 196.022 189.019 196.059 189.046H196.064Z" fill="#263238"/>
<path d="M201.901 184.655C201.974 184.66 201.953 183.832 201.326 183.089C200.709 182.335 199.902 182.165 199.897 182.239C199.865 182.319 200.551 182.59 201.104 183.269C201.669 183.938 201.811 184.671 201.895 184.65L201.901 184.655Z" fill="#263238"/>
<path d="M213.558 181.751C213.558 181.751 213.295 181.921 212.846 182.245C212.388 182.563 211.718 183.009 210.843 183.482C209.968 183.954 208.892 184.443 207.658 184.91C206.43 185.372 205.048 185.807 203.588 186.232C200.667 187.082 198.02 187.857 196.106 188.435C195.189 188.717 194.43 188.956 193.85 189.131C193.317 189.301 193.027 189.407 193.032 189.423C193.038 189.444 193.338 189.375 193.881 189.237C194.472 189.078 195.236 188.876 196.164 188.627C198.089 188.096 200.741 187.358 203.667 186.508C205.127 186.083 206.514 185.637 207.748 185.154C208.982 184.671 210.063 184.156 210.933 183.657C211.802 183.158 212.467 182.68 212.904 182.33C213.337 181.974 213.564 181.762 213.553 181.746L213.558 181.751Z" fill="#263238"/>
<path d="M214.16 181.969C214.17 181.937 213.653 181.746 212.784 181.602C211.924 181.464 210.622 181.395 209.367 182.022C208.745 182.33 208.254 182.807 207.906 183.285C207.553 183.768 207.321 184.246 207.147 184.655C206.804 185.473 206.662 186.004 206.694 186.014C206.736 186.03 206.947 185.526 207.332 184.74C207.717 183.981 208.328 182.866 209.499 182.276C210.669 181.692 211.908 181.719 212.757 181.799C213.617 181.889 214.149 182.011 214.16 181.963V181.969Z" fill="#263238"/>
<path d="M242.953 149.066C242.953 149.066 247.83 150.819 247.846 156.324C247.882 166.869 226.692 178.491 226.692 178.491L198.489 159.669L196.723 158.947C196.723 158.947 234.796 144.543 242.958 149.061L242.953 149.066Z" fill="#263238"/>
<path d="M212.773 169.179C212.773 169.179 213.047 169.014 213.505 168.679C213.969 168.34 214.628 167.841 215.435 167.214C217.049 165.956 219.247 164.177 221.609 162.133C223.971 160.089 226.054 158.172 227.53 156.755C228.268 156.048 228.859 155.464 229.26 155.056C229.66 154.647 229.877 154.413 229.861 154.402C229.845 154.387 229.608 154.594 229.181 154.976C228.722 155.395 228.116 155.942 227.388 156.606C225.875 157.981 223.776 159.876 221.414 161.915C219.052 163.954 216.88 165.759 215.298 167.055C214.539 167.681 213.906 168.196 213.426 168.594C212.983 168.961 212.746 169.168 212.762 169.184L212.773 169.179Z" fill="#455A64"/>
<path d="M234.991 153.011C235.002 152.942 233.742 152.815 232.276 153.261C230.8 153.691 229.814 154.487 229.861 154.541C229.908 154.615 230.937 153.956 232.36 153.542C233.779 153.112 234.996 153.107 234.996 153.017L234.991 153.011Z" fill="#455A64"/>
<path d="M232.56 151.35C232.534 151.281 231.632 151.684 230.889 152.619C230.14 153.548 229.94 154.519 230.014 154.53C230.098 154.556 230.404 153.675 231.116 152.799C231.817 151.918 232.608 151.424 232.566 151.35H232.56Z" fill="#455A64"/>
<path d="M244.503 184.73C244.519 184.698 244.165 184.629 243.775 184.953C243.39 185.261 243.063 185.882 242.958 186.599C242.852 187.326 243.011 187.995 243.216 188.414C243.417 188.845 243.633 189.046 243.659 189.03C243.696 189.004 243.543 188.765 243.406 188.34C243.264 187.921 243.148 187.305 243.243 186.641C243.338 185.977 243.606 185.404 243.912 185.101C244.213 184.788 244.508 184.772 244.503 184.73Z" fill="#263238"/>
<path d="M236.468 131.843L226.418 157.487L183.162 158.193L182.366 155.841L197.525 155.284L204.811 132.538L236.468 131.843Z" fill="#455A64"/>
<path d="M216.263 142.945C216.817 142.568 217.845 142.716 218.346 143.168C218.847 143.619 219.005 144.399 218.752 145.026C218.499 145.652 217.861 146.088 217.191 146.125C216.48 146.162 215.736 145.716 215.541 145.026C215.346 144.336 215.562 143.311 216.269 142.945" fill="#EBEBEB"/>
<path d="M229.36 179.771C229.36 179.771 189.51 153.447 187.876 152.9C186.247 152.353 182.303 149.751 178.359 150.845C174.415 151.939 170.883 155.501 169.111 160.705C168.099 163.678 167.624 168.748 167.403 172.555C167.134 177.105 168.531 181.639 171.489 185.091C172.833 186.662 174.489 188.027 176.456 188.643C176.872 188.77 177.299 188.887 177.742 188.982C185.277 190.628 193.022 187.22 197.251 180.732L198.178 179.309C198.178 179.309 224.246 188.951 224.657 188.818L229.355 179.776L229.36 179.771Z" fill="#263238"/>
<path d="M180.062 172.528C180.062 172.528 180.136 172.566 180.278 172.624C180.436 172.688 180.653 172.773 180.932 172.884C181.522 173.113 182.366 173.442 183.458 173.861C185.672 174.7 188.872 175.916 192.848 177.424C196.834 178.921 201.616 180.705 206.973 182.669C212.335 184.629 218.272 186.784 224.62 188.95L224.736 188.988L224.794 188.876C225.791 186.959 226.84 184.942 227.905 182.887C228.448 181.841 228.986 180.801 229.492 179.834L229.555 179.717L229.445 179.648C217.476 171.998 206.773 165.154 199.048 160.216C195.189 157.763 192.078 155.788 189.916 154.418C188.846 153.744 188.013 153.224 187.438 152.857C187.164 152.687 186.948 152.555 186.79 152.459C186.642 152.369 186.563 152.332 186.563 152.332C186.563 152.332 186.632 152.385 186.774 152.486C186.927 152.586 187.138 152.73 187.407 152.91C187.976 153.282 188.799 153.823 189.858 154.514C192.01 155.905 195.105 157.906 198.943 160.391C206.657 165.35 217.344 172.221 229.292 179.898L229.244 179.712C228.738 180.684 228.2 181.719 227.657 182.765C226.592 184.814 225.543 186.837 224.546 188.754L224.72 188.685C218.377 186.529 212.435 184.384 207.073 182.436C201.716 180.471 196.929 178.719 192.927 177.254C188.941 175.783 185.73 174.594 183.51 173.776C182.414 173.373 181.559 173.059 180.964 172.842C180.679 172.741 180.463 172.661 180.305 172.608C180.157 172.555 180.078 172.534 180.078 172.534L180.062 172.528Z" fill="#455A64"/>
<path d="M184.195 79.0515C184.876 77.2038 186.378 76.3968 188.282 75.9349C190.185 75.4729 192.305 76.0198 193.749 77.3525C194.714 78.2444 195.421 79.4762 196.617 80.0178C198.584 80.9151 201.099 79.6036 202.96 80.7027C204.062 81.3504 204.605 82.8264 204.184 84.0423C203.762 85.2581 202.428 86.0758 201.168 85.8953C202.449 86.5059 202.686 88.4438 201.806 89.5588C200.925 90.6737 199.296 90.9764 197.93 90.5888C196.57 90.2012 195.436 89.2455 194.477 88.1995C193.512 87.1536 192.674 85.9962 191.63 85.0298C190.586 84.0635 189.289 83.2884 187.876 83.2353C185.962 83.1609 184.195 84.4617 183.188 86.1023C182.181 87.7429 181.807 89.6915 181.527 91.6029C181.248 93.5142 181.037 95.4575 180.304 97.2414C180.22 97.4485 180.093 97.6821 179.877 97.7299C179.561 97.7989 179.324 97.4432 179.197 97.1406C177.758 93.7426 176.988 90.0525 176.951 86.3572C176.93 84.2122 177.167 82.1999 178.491 80.5222C179.814 78.8391 182.867 77.7931 184.206 79.0515" fill="#263238"/>
<path d="M179.703 87.6208L176.772 109.06C176.276 112.708 178.907 116.031 182.545 116.35C185.941 116.647 188.978 114.205 189.437 110.807C189.658 109.193 189.843 107.85 189.874 107.685C189.874 107.685 195.363 107.924 196.491 102.577C197.034 99.9917 197.73 94.5761 198.3 89.6755C198.911 84.4086 195.4 79.5505 190.233 78.5098L189.721 78.409C184.117 77.6179 180.326 81.9716 179.693 87.6314L179.703 87.6208Z" fill="#FFBE9D"/>
<path d="M189.901 107.6C189.901 107.6 186.484 107.197 183.357 104.218C183.357 104.218 184.233 108.407 189.642 108.991L189.906 107.6H189.901Z" fill="#EB996E"/>
<path d="M196.043 92.9408C195.98 93.3496 195.579 93.6257 195.157 93.5673C194.735 93.5036 194.445 93.1266 194.509 92.7178C194.577 92.309 194.973 92.0329 195.394 92.0913C195.816 92.155 196.106 92.532 196.043 92.9408Z" fill="#263238"/>
<path d="M196.644 92.0647C196.528 92.1443 196.038 91.6027 195.22 91.4381C194.403 91.2629 193.723 91.5656 193.654 91.4488C193.618 91.3957 193.749 91.2364 194.05 91.093C194.345 90.955 194.82 90.8541 195.331 90.9603C195.843 91.0665 196.233 91.3426 196.438 91.5815C196.649 91.8257 196.702 92.0222 196.644 92.0593V92.0647Z" fill="#263238"/>
<path d="M187.965 91.608C187.897 92.0168 187.501 92.2929 187.08 92.2345C186.658 92.1708 186.368 91.7938 186.431 91.385C186.5 90.9762 186.895 90.7001 187.317 90.7585C187.739 90.8222 188.029 91.1992 187.965 91.608Z" fill="#263238"/>
<path d="M188.572 90.5993C188.456 90.679 187.965 90.1374 187.148 89.9728C186.331 89.7976 185.651 90.1002 185.582 89.9834C185.545 89.9303 185.677 89.7711 185.978 89.6277C186.273 89.4897 186.747 89.3888 187.259 89.495C187.77 89.6012 188.16 89.8772 188.366 90.1162C188.577 90.3604 188.63 90.5569 188.572 90.594V90.5993Z" fill="#263238"/>
<path d="M190.328 97.3052C190.333 97.2574 190.86 97.2733 191.704 97.3317C191.915 97.353 192.126 97.3477 192.189 97.2149C192.268 97.0716 192.226 96.8273 192.173 96.5619C192.078 96.015 191.978 95.4363 191.872 94.8363C191.466 92.3834 191.219 90.3817 191.319 90.3658C191.419 90.3499 191.825 92.325 192.231 94.7779C192.326 95.3832 192.416 95.9566 192.505 96.5088C192.537 96.7636 192.621 97.061 192.447 97.3583C192.358 97.5016 192.184 97.5866 192.041 97.5972C191.899 97.6131 191.783 97.5919 191.677 97.576C190.839 97.4539 190.322 97.353 190.333 97.3052H190.328Z" fill="#263238"/>
<path d="M187.807 97.3899C187.944 97.4112 187.765 98.3032 188.398 99.089C189.03 99.8801 189.995 99.9703 189.979 100.092C189.979 100.151 189.732 100.225 189.331 100.156C188.935 100.092 188.387 99.8482 188.002 99.365C187.617 98.8819 187.517 98.3244 187.565 97.9527C187.607 97.5705 187.749 97.3687 187.807 97.3899Z" fill="#263238"/>
<path d="M189.421 87.4137C189.294 87.6208 188.498 87.35 187.517 87.2757C186.537 87.1801 185.703 87.3076 185.619 87.0793C185.582 86.9731 185.756 86.7872 186.115 86.6333C186.468 86.4793 187.006 86.3731 187.591 86.4262C188.182 86.4793 188.688 86.6757 189.009 86.8881C189.331 87.1005 189.473 87.3129 189.421 87.4137Z" fill="#263238"/>
<path d="M196.813 89.6172C196.633 89.7765 196.106 89.4685 195.431 89.3199C194.762 89.15 194.155 89.1925 194.06 88.9695C194.024 88.8633 194.15 88.6934 194.435 88.5659C194.714 88.4385 195.157 88.3801 195.621 88.4863C196.085 88.5925 196.454 88.8473 196.649 89.0863C196.85 89.3252 196.892 89.5376 196.807 89.6119L196.813 89.6172Z" fill="#263238"/>
<path d="M179.35 91.6772C179.266 91.6188 175.907 89.8508 175.296 93.5408C174.684 97.2308 178.485 97.0875 178.512 96.9813C178.538 96.8751 179.35 91.6772 179.35 91.6772Z" fill="#FFBE9D"/>
<path d="M177.626 95.3938C177.626 95.3938 177.552 95.4256 177.436 95.4575C177.325 95.4894 177.136 95.4893 176.956 95.3885C176.593 95.1814 176.371 94.5071 176.461 93.8381C176.508 93.4983 176.629 93.1904 176.793 92.9461C176.951 92.6966 177.151 92.5373 177.357 92.532C177.557 92.5214 177.679 92.6594 177.705 92.7709C177.737 92.8824 177.705 92.9515 177.721 92.9621C177.731 92.9727 177.81 92.9143 177.805 92.755C177.805 92.6807 177.774 92.5851 177.7 92.5002C177.626 92.4152 177.499 92.3568 177.362 92.3462C177.078 92.3196 176.777 92.5373 176.603 92.8081C176.408 93.0736 176.266 93.4187 176.213 93.801C176.113 94.5496 176.376 95.3088 176.877 95.5478C177.125 95.6593 177.352 95.6168 177.478 95.5478C177.605 95.4734 177.642 95.3991 177.626 95.3885V95.3938Z" fill="#EB996E"/>
<path d="M199.655 88.7782C197.187 88.9374 194.667 87.8065 193.133 85.8527C192.057 84.4882 191.372 82.6936 189.853 81.8653C188.83 81.3078 187.565 81.3025 186.458 81.653C185.345 82.0087 184.37 82.6936 183.489 83.4688C183.98 86.3995 182.683 89.3038 181.422 91.9903C181.285 92.2877 181.122 92.6062 180.832 92.7496C180.336 92.9938 179.74 92.6062 179.445 92.1337C178.971 91.3798 178.913 90.44 178.934 89.548C178.976 87.5145 179.329 85.4704 180.146 83.6121C180.969 81.7538 182.271 80.0867 183.974 78.9929C186.104 77.6284 188.793 77.2408 191.261 77.7771C193.729 78.3133 195.969 79.7363 197.646 81.637C198.426 82.5184 199.101 83.5325 199.365 84.6793" fill="#263238"/>
</svg>
